<?xml version="1.0" ?><svg data-name="Layer 2" id="Layer_2" viewBox="0 0 64 64" xmlns="http://www.w3.org/2000/svg"><title/><path d="M56,32a1,1,0,0,0-1,1v2a1,1,0,0,0,2,0V33A1,1,0,0,0,56,32Z"/><path d="M25,15a1,1,0,0,0,1-1V12a1,1,0,0,0-2,0v2A1,1,0,0,0,25,15Z"/><path d="M3,6A1,1,0,0,0,4,5V3A1,1,0,0,0,2,3V5A1,1,0,0,0,3,6Z"/><path d="M9,40a1,1,0,0,0-1,1v2a1,1,0,0,0,2,0V41A1,1,0,0,0,9,40Z"/><path d="M45,38.077c0-6.346-5.3-11.553-12-12.03V5h1a1,1,0,0,0,1-1V1a1,1,0,0,0-1-1H30a1,1,0,0,0-1,1V4a1,1,0,0,0,1,1h1V26.044a13.438,13.438,0,0,0-7.867,3.2,1,1,0,0,0,1.311,1.512A11.508,11.508,0,0,1,32,28c6.065,0,11,4.521,11,10.077a9.445,9.445,0,0,1-2.205,6.031,1,1,0,0,0,.064,1.339A10.478,10.478,0,0,1,44,52.846C44,59.6,37.536,62,32,62s-12-2.4-12-9.154a10.478,10.478,0,0,1,3.141-7.4,1,1,0,0,0,.064-1.339A9.445,9.445,0,0,1,21,38.077a9.279,9.279,0,0,1,.9-4,1,1,0,0,0-1.807-.857,11.317,11.317,0,0,0,1.029,11.463A12.38,12.38,0,0,0,18,52.846C18,59.518,23.626,64,32,64s14-4.482,14-11.154a12.38,12.38,0,0,0-3.126-8.168A11.341,11.341,0,0,0,45,38.077ZM31,2h2V3H31Z"/><path d="M32,33a5,5,0,1,0,5,5A5.006,5.006,0,0,0,32,33Zm0,8a3,3,0,1,1,3-3A3,3,0,0,1,32,41Z"/><path d="M29,50a1,1,0,0,0,0,2h6a1,1,0,0,0,0-2Z"/><path d="M18.316,17.948a1,1,0,1,0-.633-1.9L10,18.613V12.721l8.316-2.772a1,1,0,1,0-.633-1.9l-9,3A1,1,0,0,0,8,12V26.026A4.951,4.951,0,0,0,5,25a5,5,0,1,0,5,5V20.72ZM5,33a3,3,0,1,1,3-3A3,3,0,0,1,5,33Z"/><path d="M63.655.244a1,1,0,0,0-.8-.234l-14,2A1,1,0,0,0,48,3V13.026A4.951,4.951,0,0,0,45,12a5.027,5.027,0,0,0-1.249.157,1,1,0,0,0,.5,1.938A3.054,3.054,0,0,1,45,14a3,3,0,1,1-2.6,1.5,1,1,0,1,0-1.732-1A5,5,0,1,0,50,17V3.867L62,2.153V9.026A4.951,4.951,0,0,0,59,8a5,5,0,1,0,5,5V1A1,1,0,0,0,63.655.244ZM59,16a3,3,0,1,1,3-3A3,3,0,0,1,59,16Z"/></svg>